<svg width="20" height="19" viewBox="0 0 20 19" fill="none" xmlns="http://www.w3.org/2000/svg">
<path d="M0 5.7192C1.75987 4.29476 4.26211 1.16676 6.21375 1.16676C8.16305 1.16676 8.64182 3.50143 8.90775 5.61896C9.17718 7.73648 9.94295 12.3689 10.9735 12.3689C12.0064 12.3689 14.3579 8.27101 14.2239 6.68788C14.0921 5.10474 12.3887 5.34219 11.4524 5.79678C12.3135 2.63065 14.3016 0.947266 16.8438 0.947266C19.3871 0.947266 20 2.7689 20 5.00581C20 8.41057 13.1945 18.842 9.08298 18.842C6.53964 18.842 5.90904 15.0412 5.39384 13.1598C4.87734 11.2809 3.86334 6.35031 2.6776 6.0341C2.21757 5.95652 0.918894 7.00277 0.918894 7.00277L0 5.7192Z" fill="#5A5A5A"/>
</svg>
