<svg width="15" height="21" viewBox="0 0 15 21" fill="none" xmlns="http://www.w3.org/2000/svg">
<path d="M13.0546 2.81774C11.741 1.4828 9.92295 0.747559 7.93556 0.747559C4.89971 0.747559 3.03253 2.06485 2.00076 3.16985C0.72917 4.53165 0 6.33983 0 8.13088C0 10.3797 0.888595 12.1057 2.37667 12.7478C2.47657 12.7911 2.57709 12.813 2.67563 12.813C2.98956 12.813 3.2383 12.5955 3.32448 12.2468C3.3747 12.0467 3.4911 11.553 3.5417 11.3387C3.65004 10.9155 3.56251 10.712 3.32626 10.4173C2.89588 9.87821 2.69545 9.24078 2.69545 8.41119C2.69545 5.94706 4.42882 3.32819 7.64145 3.32819C10.1905 3.32819 11.774 4.8618 11.774 7.33049C11.774 8.88834 11.457 10.3311 10.8812 11.3931C10.4811 12.131 9.77756 13.0106 8.69747 13.0106C8.2304 13.0106 7.81085 12.8075 7.5461 12.4534C7.29601 12.1187 7.21359 11.6863 7.31417 11.2357C7.4278 10.7266 7.58273 10.1955 7.73267 9.68202C8.00616 8.74428 8.26469 7.85859 8.26469 7.15196C8.26469 5.94328 7.56272 5.13116 6.51809 5.13116C5.19049 5.13116 4.15041 6.5585 4.15041 8.38063C4.15041 9.27427 4.37477 9.94265 4.47634 10.1993C4.3091 10.9494 3.31512 15.4088 3.12658 16.2498C3.01757 16.7407 2.36085 20.6179 3.44783 20.927C4.66913 21.2744 5.76079 17.4983 5.87189 17.0715C5.96195 16.7245 6.27704 15.4123 6.47014 14.6057C7.0597 15.2068 8.00899 15.6132 8.93267 15.6132C10.674 15.6132 12.24 14.7837 13.3422 13.2777C14.4112 11.817 15 9.78113 15 7.54531C15 5.7974 14.2909 4.07424 13.0546 2.81774Z" fill="#5A5A5A"/>
</svg>
