<svg width="16" height="20" viewBox="0 0 16 20" fill="none" xmlns="http://www.w3.org/2000/svg">
<path fill-rule="evenodd" clip-rule="evenodd" d="M5.049 7.66526H3.87867L3.87687 3.62433L2.40618 0.151611H3.67224L4.4178 2.73147L5.1528 0.158299H6.43251L5.05003 3.62199L5.049 7.66526ZM6.46582 2.96808C6.38223 3.25287 6.33989 3.64784 6.33989 4.15394H6.34009V5.5498C6.34009 6.01205 6.3623 6.35848 6.40927 6.58936C6.45548 6.81997 6.5321 7.01783 6.64204 7.18033C6.75018 7.34255 6.90246 7.46485 7.09909 7.54586C7.29497 7.62762 7.53346 7.66657 7.81575 7.66657C8.06921 7.66657 8.29294 7.62018 8.48854 7.52497C8.68262 7.43107 8.84263 7.28381 8.96649 7.08671C9.09195 6.88781 9.17292 6.67554 9.21037 6.44645C9.2483 6.21784 9.26789 5.85824 9.26789 5.36917V4.03577C9.26789 3.64963 9.24775 3.36249 9.20595 3.17263C9.16492 2.9851 9.08905 2.80172 8.97601 2.62344C8.86608 2.44571 8.70634 2.30203 8.50068 2.19111C8.29501 2.08094 8.04907 2.02447 7.76237 2.02447C7.42173 2.02447 7.14089 2.11086 6.92157 2.28397C6.70218 2.45577 6.54997 2.68404 6.46582 2.96808ZM10.0978 7.13131C10.1548 7.27113 10.2439 7.38384 10.3654 7.46947C10.4844 7.55303 10.6377 7.59563 10.8206 7.59563C10.9809 7.59563 11.123 7.55227 11.2464 7.46278C11.37 7.37378 11.4743 7.2412 11.5589 7.06375L11.5377 7.50022H12.7777V2.22847H11.8015V6.33138C11.8015 6.55324 11.618 6.73511 11.3942 6.73511C11.172 6.73511 10.988 6.55324 10.988 6.33138V2.22847H9.96937V5.78399C9.96937 6.237 9.97737 6.53904 9.99102 6.69229C10.0056 6.84445 10.0405 6.99019 10.0978 7.13131ZM16 16.8748V11.2146C16 9.85691 14.8222 8.74537 13.3822 8.74537H2.61806C1.17757 8.74537 0 9.85664 0 11.2146V16.8748C0 18.2325 1.1775 19.3435 2.61806 19.3435H13.3819C14.8222 19.3435 16 18.2327 16 16.8748ZM9.58114 12.8787C9.31458 12.8787 9.09574 13.0585 9.09574 13.2783V16.2539C9.09574 16.4736 9.31458 16.6524 9.58114 16.6524C9.84978 16.6524 10.0686 16.4736 10.0686 16.2539V13.278C10.0686 13.0585 9.84978 12.8787 9.58114 12.8787ZM13.5344 14.19H12.48L12.4851 13.5781C12.4851 13.3059 12.7084 13.0839 12.9816 13.0839H13.0492C13.3226 13.0839 13.5468 13.306 13.5468 13.5781L13.5344 14.19ZM3.33574 17.4893L3.33526 11.527L4.66946 11.5275V10.6437L1.11254 10.6383V11.5066L2.223 11.51V17.4893H3.33574ZM6.22319 12.4154H7.33545V17.4877L6.44231 17.4864L6.44437 16.8291C6.20436 17.3443 5.24494 17.7588 4.74478 17.3979C4.5088 17.2294 4.48743 16.9491 4.46748 16.6876L4.46748 16.6875L4.46747 16.6874L4.46747 16.6874C4.46467 16.6506 4.46189 16.6143 4.45856 16.5786C4.44897 16.4715 4.45057 16.2807 4.45271 16.0266C4.45385 15.8914 4.45514 15.7382 4.45497 15.5702L4.45083 12.4151H5.55716L5.56233 15.6208C5.56252 15.7873 5.5592 15.9273 5.55649 16.0416C5.55208 16.2278 5.54929 16.3456 5.56592 16.3981C5.72413 16.8803 6.13084 16.6181 6.22167 16.3713C6.23922 16.3224 6.23616 16.2193 6.23097 16.0441C6.22754 15.9288 6.22319 15.7821 6.22319 15.5992V12.4154ZM10.8947 16.0612L10.8927 13.4111C10.8916 12.4009 10.136 11.796 9.1094 12.6133L9.11402 10.6429L8.00252 10.6447L7.99707 17.4449L8.9109 17.4314L8.99401 17.0076C10.1623 18.0798 10.8967 17.3456 10.8947 16.0612ZM13.5424 15.7145L14.377 15.7101C14.7571 17.9693 11.5657 18.3406 11.565 15.714V14.134C11.565 13.6599 11.6119 13.2872 11.7066 13.0139C11.801 12.7405 11.9624 12.5372 12.174 12.3853C12.848 11.899 14.1817 12.0497 14.3182 12.9997C14.3616 13.3 14.3752 13.825 14.3752 14.3499V15.0686H12.465V15.729V16.2413V16.2929C12.465 16.5418 12.6707 16.7446 12.9212 16.7446H13.0846C13.3347 16.7446 13.5404 16.5418 13.5404 16.2929V15.8275C13.5406 15.8096 13.541 15.7923 13.5414 15.7759C13.5419 15.754 13.5424 15.7335 13.5424 15.7145ZM7.31069 6.24831C7.31069 6.54648 7.53339 6.79026 7.80409 6.79026C8.0748 6.79026 8.29598 6.54676 8.29598 6.24831V3.4417C8.29598 3.14353 8.0748 2.89976 7.80409 2.89976C7.53339 2.89976 7.31069 3.14326 7.31069 3.4417V6.24831Z" fill="#5A5A5A"/>
</svg>
