<svg width="20" height="21" viewBox="0 0 20 21" fill="none" xmlns="http://www.w3.org/2000/svg">
<path fill-rule="evenodd" clip-rule="evenodd" d="M6.25 0.151611H13.75C17.2013 0.151611 20 2.97863 20 6.46474V14.0405C20 17.5266 17.2013 20.3536 13.75 20.3536H6.25C2.79875 20.3536 0 17.5266 0 14.0405V6.46474C0 2.97863 2.79875 0.151611 6.25 0.151611ZM13.75 18.4597C16.1625 18.4597 18.125 16.4774 18.125 14.0405V6.46474C18.125 4.02787 16.1625 2.04555 13.75 2.04555H6.25C3.8375 2.04555 1.875 4.02787 1.875 6.46474V14.0405C1.875 16.4774 3.8375 18.4597 6.25 18.4597H13.75Z" fill="#666666"/>
<path fill-rule="evenodd" clip-rule="evenodd" d="M5 10.2527C5 7.46351 7.23875 5.20215 10 5.20215C12.7613 5.20215 15 7.46351 15 10.2527C15 13.0418 12.7613 15.3032 10 15.3032C7.23875 15.3032 5 13.0418 5 10.2527ZM6.875 10.2527C6.875 11.9926 8.2775 13.4092 10 13.4092C11.7225 13.4092 13.125 11.9926 13.125 10.2527C13.125 8.51149 11.7225 7.09609 10 7.09609C8.2775 7.09609 6.875 8.51149 6.875 10.2527Z" fill="#5A5A5A"/>
<path d="M15 5.20209C15.5523 5.20209 16 4.74985 16 4.19199C16 3.63412 15.5523 3.18188 15 3.18188C14.4477 3.18188 14 3.63412 14 4.19199C14 4.74985 14.4477 5.20209 15 5.20209Z" fill="#5A5A5A"/>
</svg>
