<svg width="20" height="21" viewBox="0 0 20 21" fill="none" xmlns="http://www.w3.org/2000/svg">
<path fill-rule="evenodd" clip-rule="evenodd" d="M9.99972 0.444336C4.48587 0.444336 0 4.97592 0 10.5455C0 16.1151 4.48587 20.6464 9.99972 20.6464C15.5138 20.6464 20 16.1153 20 10.5455C20 4.97592 15.5138 0.444336 9.99972 0.444336ZM16.58 5.21181C17.7206 6.64163 18.4139 8.4474 18.4458 10.4151C18.0663 10.3362 16.4588 10.0332 14.538 10.0332C13.9182 10.0332 13.2659 10.0646 12.6119 10.1463C12.5566 10.0105 12.5014 9.87523 12.4434 9.73857C12.2738 9.33512 12.091 8.93478 11.9018 8.5404C14.8582 7.30848 16.2842 5.59882 16.58 5.21181ZM15.566 4.14491C14.0783 2.82623 12.1305 2.02556 9.99972 2.02556C9.34514 2.02556 8.70767 2.10182 8.09514 2.24529C8.43883 2.71424 9.8831 4.73436 11.2026 7.17381C14.0533 6.0845 15.3305 4.46983 15.566 4.14491ZM6.37082 2.85345C6.66209 3.25917 8.1086 5.30084 9.46204 7.72073C5.82978 8.68641 2.60428 8.74936 1.8258 8.74936H1.7431C2.30237 6.14263 4.04379 3.97649 6.37082 2.85345ZM1.55472 10.3482C1.55248 10.4182 1.55136 10.4885 1.55136 10.5588C1.55136 12.7255 2.35563 14.7051 3.6788 16.2129C4.03594 15.6161 6.35681 11.9645 10.5794 10.5852C10.6722 10.5546 10.7656 10.5271 10.8603 10.4996C10.6588 10.0428 10.4421 9.58576 10.2145 9.13552C6.46417 10.2611 2.8249 10.3487 1.77646 10.3487C1.67975 10.3487 1.60518 10.3487 1.55472 10.3482ZM9.99972 19.0915C8.06207 19.0915 6.27383 18.4278 4.84694 17.3149C5.0883 16.8363 6.8401 13.6464 11.4675 12.0176C11.4703 12.0164 11.4734 12.0153 11.4768 12.0144C12.6371 15.0697 13.1285 17.6339 13.2633 18.4286C12.2592 18.8556 11.1564 19.0915 9.99972 19.0915ZM13.1658 11.5957C14.2165 14.5267 14.6717 16.9299 14.785 17.5874C16.6349 16.2982 17.9525 14.2841 18.334 11.9566C18.013 11.8574 16.6318 11.4664 14.866 11.4664C14.3283 11.4664 13.755 11.503 13.1658 11.5957Z" fill="#5A5A5A"/>
</svg>
