<svg width="20" height="18" viewBox="0 0 20 18" fill="none" xmlns="http://www.w3.org/2000/svg">
<path d="M20 2.62051C19.2644 2.95748 18.473 3.18539 17.6431 3.28718C18.4905 2.76275 19.1407 1.93297 19.4477 0.942599C18.6548 1.42846 17.7762 1.78092 16.842 1.9709C16.0935 1.14744 15.0271 0.632812 13.8462 0.632812C11.5805 0.632812 9.74295 2.53105 9.74295 4.87152C9.74295 5.20375 9.77937 5.52713 9.84975 5.83755C6.43961 5.66084 3.41596 3.97345 1.39203 1.40823C1.03889 2.03412 0.836317 2.76275 0.836317 3.53943C0.836317 5.00966 1.56125 6.3076 2.66165 7.06752C1.98935 7.04571 1.35622 6.8551 0.803268 6.53678C0.802962 6.5548 0.802962 6.57281 0.802962 6.59052C0.802962 8.64428 2.21794 10.3573 4.09468 10.7464C3.75073 10.8438 3.3875 10.8953 3.01386 10.8953C2.74886 10.8953 2.49212 10.8691 2.24181 10.8197C2.76385 12.5033 4.27889 13.7289 6.07485 13.7633C4.67028 14.9004 2.90125 15.5778 0.978304 15.5778C0.647817 15.5778 0.320389 15.5579 0 15.5184C1.81493 16.7215 3.97228 17.4229 6.28936 17.4229C13.8367 17.4229 17.9641 10.9642 17.9641 5.36243C17.9641 5.17877 17.9602 4.99575 17.9522 4.8143C18.7546 4.21686 19.4501 3.47052 20 2.62051Z" fill="#5A5A5A"/>
</svg>
